<svg width="120" height="120" viewBox="0 0 120 120" fill="none" xmlns="http://www.w3.org/2000/svg">
<path d="M65 42.5H45C35.335 42.5 27.5 34.665 27.5 25C27.5 15.335 35.335 7.5 45 7.5H65V42.5Z" fill="#E64A19"/>
<path d="M62.5 77.5H45C35.335 77.5 27.5 69.665 27.5 60C27.5 50.335 35.335 42.5 45 42.5H62.5V77.5Z" fill="#7C4DFF"/>
<path d="M45 112.5C35.335 112.5 27.5 104.665 27.5 95C27.5 85.335 35.335 77.5 45 77.5H62.5V95C62.5 104.665 54.665 112.5 45 112.5Z" fill="#66BB6A"/>
<path d="M80 42.5H62.5V7.5H80C89.665 7.5 97.5 15.335 97.5 25C97.5 34.665 89.665 42.5 80 42.5Z" fill="#FF7043"/>
<path d="M80 77.5C89.665 77.5 97.5 69.665 97.5 60C97.5 50.335 89.665 42.5 80 42.5C70.335 42.5 62.5 50.335 62.5 60C62.5 69.665 70.335 77.5 80 77.5Z" fill="#29B6F6"/>
</svg>
