<svg width="10000" height="400" viewBox="0 0 10000 400" fill="none" xmlns="http://www.w3.org/2000/svg">
<path fill-rule="evenodd" clip-rule="evenodd" d="M0 22.8559L34 15.8718C68 8.88763 136 -5.08067 204 1.90348C272 8.88763 340 36.8242 408 64.7608C476 92.6974 544 120.634 612 113.65C680 106.666 748 64.7608 816 85.7133C884 106.666 952 190.476 1020 190.476C1088 190.476 1156 106.666 1224 113.65C1293 120.634 1361 218.412 1429 260.317C1497 302.222 1565 288.254 1633 267.301C1701 246.349 1769 218.412 1837 190.476C1905 162.539 1973 134.602 2041 99.6816C2109 64.7608 2177 22.8559 2245 29.8401C2313 36.8242 2381 92.6974 2449 134.602C2517 176.507 2585 204.444 2653 239.365C2721 274.285 2789 316.19 2857 295.238C2925 274.285 2993 190.476 3061 148.571C3129 106.666 3197 106.666 3265 120.634C3333 134.602 3401 162.539 3469 155.555C3537 148.571 3605 106.666 3673 127.618C3741 148.571 3810 232.38 3878 225.396C3946 218.412 4014 120.634 4082 99.6816C4150 78.7291 4218 134.602 4286 148.571C4354 162.539 4422 134.602 4490 162.539C4558 190.476 4626 274.285 4694 316.19C4762 358.095 4830 358.095 4898 309.206C4966 260.317 5034 162.539 5102 162.539C5170 162.539 5238 260.317 5306 288.254C5374 316.19 5442 274.285 5510 260.317C5578 246.349 5646 260.317 5714 281.269C5782 302.222 5850 330.159 5918 337.143C5986 344.127 6054 330.159 6122 316.19C6190 302.222 6259 288.254 6327 274.285C6395 260.317 6463 246.349 6531 232.38C6599 218.412 6667 204.444 6735 190.476C6803 176.507 6871 162.539 6939 141.586C7007 120.634 7075 92.6974 7143 78.7291C7211 64.7608 7279 64.7608 7347 85.7133C7415 106.666 7483 148.571 7551 148.571C7619 148.571 7687 106.666 7755 106.666C7823 106.666 7891 148.571 7959 176.507C8027 204.444 8095 218.412 8163 197.46C8231 176.507 8299 120.634 8367 106.666C8435 92.6974 8503 120.634 8571 120.634C8639 120.634 8707 92.6974 8776 127.618C8844 162.539 8912 260.317 8980 316.19C9048 372.063 9116 386.032 9184 365.079C9252 344.127 9320 288.254 9388 260.317C9456 232.38 9524 232.38 9592 197.46C9660 162.539 9728 92.6974 9796 71.745C9864 50.7925 9932 78.7291 9966 92.6974L10000 106.666V400H9966C9932 400 9864 400 9796 400C9728 400 9660 400 9592 400C9524 400 9456 400 9388 400C9320 400 9252 400 9184 400C9116 400 9048 400 8980 400C8912 400 8844 400 8776 400C8707 400 8639 400 8571 400C8503 400 8435 400 8367 400C8299 400 8231 400 8163 400C8095 400 8027 400 7959 400C7891 400 7823 400 7755 400C7687 400 7619 400 7551 400C7483 400 7415 400 7347 400C7279 400 7211 400 7143 400C7075 400 7007 400 6939 400C6871 400 6803 400 6735 400C6667 400 6599 400 6531 400C6463 400 6395 400 6327 400C6259 400 6190 400 6122 400C6054 400 5986 400 5918 400C5850 400 5782 400 5714 400C5646 400 5578 400 5510 400C5442 400 5374 400 5306 400C5238 400 5170 400 5102 400C5034 400 4966 400 4898 400C4830 400 4762 400 4694 400C4626 400 4558 400 4490 400C4422 400 4354 400 4286 400C4218 400 4150 400 4082 400C4014 400 3946 400 3878 400C3810 400 3741 400 3673 400C3605 400 3537 400 3469 400C3401 400 3333 400 3265 400C3197 400 3129 400 3061 400C2993 400 2925 400 2857 400C2789 400 2721 400 2653 400C2585 400 2517 400 2449 400C2381 400 2313 400 2245 400C2177 400 2109 400 2041 400C1973 400 1905 400 1837 400C1769 400 1701 400 1633 400C1565 400 1497 400 1429 400C1361 400 1293 400 1224 400C1156 400 1088 400 1020 400C952 400 884 400 816 400C748 400 680 400 612 400C544 400 476 400 408 400C340 400 272 400 204 400C136 400 68 400 34 400H0V22.8559Z" fill="white"/>
</svg>
