<svg viewBox="0 0 10000 400" fill="none" xmlns="http://www.w3.org/2000/svg">
<path fill-rule="evenodd" clip-rule="evenodd" d="M0 304L34 312C68 320 136 336 204 296C272 256 340 160 408 104C476 48 544 32 612 72C680 112 748 208 816 200C884 192 952 80 1020 64C1088 48 1156 128 1224 160C1293 192 1361 176 1429 136C1497 96 1565 32 1633 48C1701 64 1769 160 1837 200C1905 240 1973 224 2041 232C2109 240 2177 272 2245 248C2313 224 2381 144 2449 128C2517 112 2585 160 2653 160C2721 160 2789 112 2857 104C2925 96 2993 128 3061 152C3129 176 3197 192 3265 168C3333 144 3401 80 3469 104C3537 128 3605 240 3673 240C3741 240 3810 128 3878 128C3946 128 4014 240 4082 280C4150 320 4218 288 4286 240C4354 192 4422 128 4490 144C4558 160 4626 256 4694 256C4762 256 4830 160 4898 96C4966 32 5034 0 5102 0C5170 0 5238 32 5306 72C5374 112 5442 160 5510 208C5578 256 5646 304 5714 328C5782 352 5850 352 5918 312C5986 272 6054 192 6122 128C6190 64 6259 16 6327 32C6395 48 6463 128 6531 200C6599 272 6667 336 6735 320C6803 304 6871 208 6939 184C7007 160 7075 208 7143 232C7211 256 7279 256 7347 200C7415 144 7483 32 7551 24C7619 16 7687 112 7755 192C7823 272 7891 336 7959 296C8027 256 8095 112 8163 104C8231 96 8299 224 8367 216C8435 208 8503 64 8571 56C8639 48 8707 176 8776 184C8844 192 8912 80 8980 72C9048 64 9116 160 9184 184C9252 208 9320 160 9388 152C9456 144 9524 176 9592 200C9660 224 9728 240 9796 208C9864 176 9932 96 9966 56L10000 16V400H9966C9932 400 9864 400 9796 400C9728 400 9660 400 9592 400C9524 400 9456 400 9388 400C9320 400 9252 400 9184 400C9116 400 9048 400 8980 400C8912 400 8844 400 8776 400C8707 400 8639 400 8571 400C8503 400 8435 400 8367 400C8299 400 8231 400 8163 400C8095 400 8027 400 7959 400C7891 400 7823 400 7755 400C7687 400 7619 400 7551 400C7483 400 7415 400 7347 400C7279 400 7211 400 7143 400C7075 400 7007 400 6939 400C6871 400 6803 400 6735 400C6667 400 6599 400 6531 400C6463 400 6395 400 6327 400C6259 400 6190 400 6122 400C6054 400 5986 400 5918 400C5850 400 5782 400 5714 400C5646 400 5578 400 5510 400C5442 400 5374 400 5306 400C5238 400 5170 400 5102 400C5034 400 4966 400 4898 400C4830 400 4762 400 4694 400C4626 400 4558 400 4490 400C4422 400 4354 400 4286 400C4218 400 4150 400 4082 400C4014 400 3946 400 3878 400C3810 400 3741 400 3673 400C3605 400 3537 400 3469 400C3401 400 3333 400 3265 400C3197 400 3129 400 3061 400C2993 400 2925 400 2857 400C2789 400 2721 400 2653 400C2585 400 2517 400 2449 400C2381 400 2313 400 2245 400C2177 400 2109 400 2041 400C1973 400 1905 400 1837 400C1769 400 1701 400 1633 400C1565 400 1497 400 1429 400C1361 400 1293 400 1224 400C1156 400 1088 400 1020 400C952 400 884 400 816 400C748 400 680 400 612 400C544 400 476 400 408 400C340 400 272 400 204 400C136 400 68 400 34 400H0V304Z" fill="white"/>
</svg>
