<svg width="120" height="120" viewBox="0 0 120 120" fill="none" xmlns="http://www.w3.org/2000/svg">
<path d="M102.5 12.5H17.5L25 97.5L60 107.5L95 97.5L102.5 12.5Z" fill="#0277BD"/>
<path d="M60 20V99.75L88 91.75L94.25 20H60Z" fill="#039BE5"/>
<path d="M82.75 32.5H60V42.5H72.25L71.5 52.5H60V62.5H71L70.25 73.75L60 77.25V87.75L79.75 81.25L81.5 52.5L82.75 32.5Z" fill="white"/>
<path d="M60.0001 32.5V42.5H37.7501L37.0001 32.5H60.0001ZM48.5001 52.5L49.0001 62.5H60.0001V52.5H48.5001ZM49.5001 67.5H39.5001L40.2501 81.25L60.0001 87.75V77.25L49.7501 73.75L49.5001 67.5Z" fill="#EEEEEE"/>
</svg>
