<svg width="120" height="120" viewBox="0 0 120 120" fill="none" xmlns="http://www.w3.org/2000/svg">
<path d="M13.8462 79.5844H16.8873V67.5756L21.595 78.0444C22.1506 79.3114 22.911 79.7599 24.4022 79.7599C25.8936 79.7599 26.6246 79.3116 27.1804 78.0444L31.8882 67.5756V79.5842H34.9292V67.5953C34.9292 66.4254 34.4613 65.8602 33.4966 65.5679C31.1865 64.8466 29.6366 65.4704 28.9347 67.03L24.3145 77.3619L19.8408 67.03C19.1682 65.4704 17.5892 64.8466 15.2791 65.5679C14.3141 65.8602 13.8462 66.4257 13.8462 67.595V79.5844V79.5844ZM37.4579 69.8099H40.498V76.4258C40.4696 76.7853 40.6134 77.6288 42.2793 77.6549C43.1292 77.6684 48.8389 77.6549 48.8922 77.6549V69.7777H51.9394C51.9534 69.7777 51.9364 80.5203 51.9366 80.566C51.9532 83.2154 48.6492 83.7908 47.1263 83.8353H37.5237V81.7893C37.5408 81.7893 47.1192 81.7915 47.1434 81.7891C49.1006 81.5823 48.8694 80.6095 48.8692 80.282V79.4845H42.4053C39.3978 79.4568 37.483 78.1441 37.4593 76.6345C37.4569 76.4945 37.5242 69.876 37.4577 69.8097L37.4579 69.8099Z" fill="#00618A"/>
<path d="M54.2829 79.5846H63.0259C64.0494 79.5846 65.0435 79.3703 65.8333 78.9997C67.149 78.3956 67.7924 77.5769 67.7924 76.5044V74.2822C67.7924 73.4048 67.0614 72.5859 65.6284 72.0403C64.868 71.7476 63.9324 71.5918 63.0259 71.5918H59.3412C58.1136 71.5918 57.5286 71.2214 57.3825 70.4028C57.3532 70.3052 57.3532 70.2271 57.3532 70.1298V68.7458C57.3532 68.6677 57.3532 68.5896 57.3825 68.4922C57.5286 67.8685 57.8505 67.6928 58.9322 67.5954C59.0198 67.5954 59.1368 67.5758 59.2247 67.5758H67.9094V65.5487H59.3708C58.1427 65.5487 57.4993 65.6266 56.9146 65.8018C55.1016 66.3673 54.3121 67.2641 54.3121 68.8235V70.5977C54.3121 71.9624 55.862 73.132 58.4643 73.4048C58.757 73.4242 59.0492 73.4437 59.3414 73.4437H62.4995C62.6167 73.4437 62.7337 73.4437 62.8213 73.4633C63.7863 73.5415 64.1955 73.7167 64.4882 74.0676C64.6634 74.2429 64.7219 74.4186 64.7219 74.6135V76.3872C64.7219 76.602 64.5758 76.875 64.2836 77.1087C64.0203 77.3427 63.5817 77.4988 62.9968 77.5378C62.8798 77.5378 62.7922 77.5573 62.6752 77.5573H54.2827V79.5843L54.2829 79.5846ZM86.7636 76.0561C86.7636 78.1419 88.3132 79.3118 91.4422 79.5457C91.7344 79.5652 92.0271 79.5846 92.3193 79.5846H100.244V77.5573H92.2608C90.4772 77.5573 89.8046 77.1087 89.8046 76.0367V65.5485H86.7636V76.0561ZM69.7333 76.1625V68.9344C69.7333 67.0981 71.0227 65.9844 73.5717 65.6328C73.8435 65.594 74.1177 65.5744 74.3922 65.5743H80.1647C80.4576 65.5743 80.7216 65.5939 81.0146 65.6328C83.5638 65.9844 84.853 67.0981 84.853 68.9344V76.1622C84.853 77.6517 84.3055 78.4493 83.0435 78.9689L86.0392 81.6727H82.5081L80.0846 79.4851L77.6448 79.6397H74.3922C73.8355 79.6397 73.2496 79.5614 72.6048 79.3857C70.671 78.8583 69.7333 77.8424 69.7333 76.1622V76.1625ZM73.0154 75.9867C73.0154 76.0845 73.0448 76.1821 73.0742 76.2993C73.2499 77.1393 74.041 77.6082 75.2424 77.6082H78.0052L75.4673 75.317H78.9981L81.2118 77.3152C81.6196 77.0978 81.8882 76.7654 81.9819 76.3384C82.0111 76.2408 82.0111 76.143 82.0111 76.0455V69.1105C82.0111 69.0324 82.0111 68.9346 81.9819 68.8368C81.806 68.0553 81.0148 67.6063 79.8428 67.6063H75.2424C73.8947 67.6063 73.0157 68.1924 73.0157 69.1105V75.9867H73.0154Z" fill="#E48E00"/>
<path d="M102.919 62.1851C101.05 62.1344 99.6224 62.3083 98.4016 62.8231C98.0547 62.9694 97.5015 62.9732 97.4449 63.408C97.6356 63.6079 97.6652 63.9062 97.8167 64.152C98.108 64.6238 98.6003 65.2558 99.0394 65.5873C99.5191 65.9497 100.014 66.3368 100.528 66.6506C101.443 67.2083 102.464 67.5268 103.345 68.0857C103.864 68.4151 104.38 68.83 104.886 69.2018C105.137 69.3855 105.305 69.6713 105.63 69.7867V69.7334C105.459 69.5158 105.415 69.2164 105.258 68.9891L104.567 68.2981C103.892 67.4013 103.034 66.6137 102.122 65.9594C101.395 65.4374 99.768 64.7327 99.4647 63.8863L99.4114 63.8331C99.9269 63.775 100.531 63.5884 101.006 63.4613C101.806 63.2467 102.52 63.3021 103.345 63.089C103.717 62.9827 104.089 62.8761 104.461 62.77V62.5574C104.044 62.1292 103.747 61.5628 103.291 61.1754C102.102 60.1618 100.802 59.1492 99.4647 58.305C98.7227 57.8366 97.8058 57.5323 97.0196 57.1354C96.7551 57.0021 96.2902 56.9327 96.1157 56.7101C95.7027 56.1837 95.4777 55.5161 95.159 54.9028C94.4919 53.6181 93.8367 52.2148 93.2456 50.8628C92.8423 49.9412 92.579 49.0323 92.0762 48.2051C89.6627 44.2369 87.0646 41.8421 83.0401 39.4877C82.1838 38.9871 81.1527 38.7891 80.0632 38.531L78.3091 38.4244C77.9522 38.2753 77.5809 37.8388 77.2458 37.6271C75.9126 36.785 72.4931 34.9528 71.5056 37.3614C70.8821 38.8817 72.4374 40.3653 72.9937 41.1357C73.3842 41.6761 73.8841 42.2818 74.1631 42.8897C74.3466 43.2892 74.3783 43.6896 74.5353 44.1124C74.9218 45.1536 75.2576 46.2863 75.7577 47.2484C76.0104 47.7353 76.2889 48.2482 76.6083 48.6835C76.8042 48.9508 77.1397 49.0685 77.1928 49.481C76.8646 49.9404 76.8459 50.6532 76.6614 51.2351C75.8307 53.8547 76.144 57.1103 77.3524 59.0491C77.7232 59.6442 78.5966 60.9206 79.7975 60.4311C80.8479 60.0032 80.6133 58.6773 80.9138 57.5077C80.9817 57.2424 80.9398 57.0473 81.0731 56.8697V56.923L82.0298 58.8364C82.7379 59.9766 83.9949 61.1685 85.0598 61.9727C85.6121 62.3897 86.0468 63.1108 86.7608 63.3547V63.3014H86.7075C86.5692 63.0859 86.3528 62.9964 86.1761 62.8231C85.7601 62.4153 85.2976 61.9083 84.9535 61.4411C83.9849 60.1261 83.1289 58.687 82.3491 57.1887C81.9766 56.4735 81.6528 55.684 81.3388 54.9561C81.2178 54.6754 81.2193 54.2511 80.967 54.1054C80.6232 54.639 80.1167 55.0704 79.8507 55.7003C79.4254 56.7073 79.3705 57.9351 79.213 59.2084C79.1197 59.2418 79.1609 59.2188 79.1064 59.2615C78.3662 59.0829 78.1059 58.3209 77.831 57.667C77.1348 56.0136 77.0057 53.3512 77.6179 51.448C77.7765 50.9554 78.4926 49.4043 78.2028 48.9496C78.0645 48.4957 77.6079 48.2331 77.3524 47.8864C77.0363 47.4575 76.7206 46.893 76.5018 46.3978C75.9323 45.1086 75.6663 43.6615 75.0667 42.3583C74.7802 41.7353 74.2954 41.1049 73.8974 40.551C73.4567 39.9377 72.9631 39.4853 72.6217 38.7434C72.5002 38.4799 72.3351 38.0579 72.5151 37.7867C72.5727 37.6039 72.6534 37.5274 72.8343 37.4677C73.1426 37.2302 74.0013 37.5468 74.3224 37.6804C75.1749 38.0344 75.8863 38.3716 76.6083 38.8498C76.955 39.0797 77.3055 39.5242 77.7244 39.6473H78.2028C78.9511 39.8192 79.7894 39.7006 80.4885 39.913C81.7241 40.2886 82.8315 40.8726 83.8369 41.5077C86.901 43.4422 89.406 46.196 91.1195 49.481C91.3952 50.0098 91.5145 50.5147 91.7572 51.0757C92.2472 52.2072 92.8643 53.3713 93.3517 54.4777C93.8381 55.5812 94.3122 56.6954 94.9996 57.614C95.3612 58.0968 96.7572 58.3559 97.3914 58.6237C97.8364 58.8118 98.565 59.0076 98.9863 59.2615C99.791 59.7469 100.571 60.3247 101.325 60.8564C101.703 61.1221 102.862 61.7049 102.92 62.1851H102.919Z" fill="#00618A"/>
<path fill-rule="evenodd" clip-rule="evenodd" d="M79.1596 41.933C78.7698 41.9259 78.4941 41.9757 78.2026 42.0391V42.0924H78.2559C78.4418 42.4744 78.7698 42.7202 79 43.0491C79.177 43.4213 79.3542 43.7934 79.5316 44.1655L79.5846 44.1124C79.9138 43.8803 80.0646 43.5093 80.063 42.943C79.9311 42.8043 79.9114 42.63 79.7973 42.4645C79.6453 42.2437 79.3511 42.1187 79.1596 41.933V41.933Z" fill="#00618A"/>
<path fill-rule="evenodd" clip-rule="evenodd" d="M101.671 77.4993C101.671 78.8383 102.729 79.7405 103.913 79.7405C105.096 79.7405 106.154 78.8383 106.154 77.4993C106.154 76.1607 105.096 75.2584 103.913 75.2584C102.729 75.2584 101.672 76.1607 101.672 77.4993H101.671ZM105.652 77.4993C105.652 78.5152 104.875 79.2745 103.913 79.2745C102.939 79.2745 102.174 78.5152 102.174 77.4993C102.174 76.4834 102.939 75.7242 103.913 75.7242C104.875 75.7242 105.652 76.4834 105.652 77.4993ZM104.517 78.7781H105.018L104.284 77.6549C104.678 77.613 104.976 77.4217 104.976 76.9556C104.976 76.4356 104.648 76.2206 104.015 76.2206H103.016V78.7781H103.447V77.6727H103.847L104.517 78.7783V78.7781ZM103.447 77.3142V76.5791H103.943C104.2 76.5791 104.51 76.6269 104.51 76.9258C104.51 77.2841 104.23 77.3142 103.907 77.3142H103.447V77.3142Z" fill="#E48E00"/>
</svg>
