<svg width="120" height="120" viewBox="0 0 120 120" fill="none" xmlns="http://www.w3.org/2000/svg">
<path d="M60.1174 12.5002C56.2299 12.5127 53.5349 12.8552 50.2774 13.4177C40.6574 15.0927 38.9049 18.6102 38.9049 25.0927V35.0002H61.4049V40.0002H38.0499H27.1749C20.5849 40.0002 14.8174 43.1052 12.9899 50.5477C10.9249 59.0902 10.8324 64.4402 12.9899 73.3602C14.6274 80.0127 18.2349 85.0002 24.8274 85.0002H33.9074V72.2402C33.9074 64.8252 40.6224 57.5002 48.3174 57.5002H66.4074C72.7149 57.5002 78.9074 52.8452 78.9074 46.5577V25.0927C78.9074 18.9952 74.5099 14.4352 68.3624 13.4127C68.5149 13.3977 63.9724 12.4852 60.1174 12.5002ZM47.6574 22.5002C49.7099 22.5002 51.4074 24.1927 51.4074 26.2552C51.4074 28.3377 49.7099 30.0002 47.6574 30.0002C45.5649 30.0002 43.9074 28.3402 43.9074 26.2552C43.9074 24.2002 45.5649 22.5002 47.6574 22.5002Z" fill="#0277BD"/>
<path d="M57.695 107.5C61.5825 107.488 64.2775 107.145 67.535 106.582C77.155 104.908 78.9075 101.39 78.9075 94.9075V85H56.4075V80H79.765H90.64C97.23 80 102.998 76.895 104.825 69.4525C106.89 60.91 106.983 55.56 104.825 46.64C103.185 39.9875 99.5775 35 92.985 35H83.905V47.76C83.905 55.175 77.19 62.5 69.495 62.5H51.405C45.0975 62.5 38.905 67.155 38.905 73.4425V94.9075C38.905 101.005 43.3025 105.565 49.45 106.587C49.2975 106.602 53.84 107.515 57.695 107.5ZM70.1575 97.5C68.105 97.5 66.4075 95.8075 66.4075 93.745C66.4075 91.6625 68.105 90 70.1575 90C72.25 90 73.9075 91.66 73.9075 93.745C73.9075 95.8 72.2475 97.5 70.1575 97.5Z" fill="#FFC107"/>
</svg>
