<?xml version="1.0" encoding="utf-8"?>
<svg xmlns="http://www.w3.org/2000/svg" viewBox="0 0 30 30" fill="#000000"><path d="M 5 5 C 3.3550302 5 2 6.3550302 2 8 L 2 21 C 2 21.768584 2.3041249 22.466647 2.7871094 23 L 0 23 C 0 24.657 1.343 26 3 26 L 27 26 C 28.657 26 30 24.657 30 23 L 27.212891 23 C 27.695875 22.466647 28 21.768584 28 21 L 28 8 C 28 6.3550302 26.64497 5 25 5 L 5 5 z M 5 7 L 25 7 C 25.56503 7 26 7.4349698 26 8 L 26 21 C 26 21.56503 25.56503 22 25 22 L 5 22 C 4.4349698 22 4 21.56503 4 21 L 4 8 C 4 7.4349698 4.4349698 7 5 7 z M 12.777344 10 C 12.347344 10 12 10.347344 12 10.777344 L 12 17.777344 C 12 18.207344 12.347344 18.556641 12.777344 18.556641 C 13.001344 18.556641 13.199797 18.458641 13.341797 18.306641 L 13.345703 18.308594 L 14.644531 16.775391 L 15.980469 19.447266 A 1.0001163 1.0001163 0 1 0 17.769531 18.552734 L 16.384766 15.783203 L 18.4375 15.414062 L 18.439453 15.400391 C 18.760453 15.305391 19 15.020969 19 14.667969 C 19 14.395969 18.851625 14.168297 18.640625 14.029297 L 18.642578 14.013672 L 13.302734 10.205078 L 13.298828 10.207031 C 13.160828 10.081031 12.979344 10 12.777344 10 z" fill="#000000"/></svg>
