<?xml version="1.0" encoding="utf-8"?>
<svg xmlns="http://www.w3.org/2000/svg" viewBox="0 0 30 30" fill="#000000"><path d="M 24 0 C 20.686 0 18 2.686 18 6 C 18 10.792 23 12 23 14 C 23 14.549 23.448 15 24 15 C 24.552 15 25 14.549 25 14 C 25 12 30 10.792 30 6 C 30 2.686 27.314 0 24 0 z M 15 3 C 8.383 3 3 8.383 3 15 C 3 21.617 8.383 27 15 27 C 21.617 27 27 21.617 27 15 C 27 14.784 26.97975 14.574328 26.96875 14.361328 C 26.82175 15.569328 25.959406 16.547047 24.816406 16.873047 C 24.743406 17.256047 24.654063 17.634 24.539062 18 L 20.818359 18 C 20.932359 17.045 21 16.046 21 15 C 21 14.72 20.984609 14.451734 20.974609 14.177734 C 20.777609 13.942734 20.331281 13.556719 19.988281 13.261719 C 19.628281 12.951719 19.225359 12.599078 18.818359 12.205078 C 18.931359 13.087078 19 14.019 19 15 C 19 16.055 18.927828 17.061 18.798828 18 L 11.201172 18 C 11.073172 17.061 11 16.055 11 15 C 11 13.945 11.072172 12.939 11.201172 12 L 18.613281 12 C 18.060281 11.44 17.521313 10.778 17.070312 10 L 11.585938 10 C 12.344938 6.961 13.722 5 15 5 C 15.341 5 15.687297 5.1481563 16.029297 5.4101562 C 16.088297 4.6041562 16.267828 3.8333281 16.548828 3.1113281 C 16.040828 3.0463281 15.526 3 15 3 z M 24 4 C 25.105 4 26 4.895 26 6 C 26 7.105 25.105 8 24 8 C 22.895 8 22 7.105 22 6 C 22 4.895 22.895 4 24 4 z M 11.0625 5.8105469 C 10.3985 6.9385469 9.8677188 8.362 9.5117188 10 L 6.3535156 10 C 7.4305156 8.146 9.0785 6.6645469 11.0625 5.8105469 z M 5.4609375 12 L 9.1816406 12 C 9.0676406 12.955 9 13.954 9 15 C 9 16.046 9.0676406 17.045 9.1816406 18 L 5.4609375 18 C 5.1629375 17.052 5 16.045 5 15 C 5 13.955 5.1629375 12.948 5.4609375 12 z M 6.3535156 20 L 9.5117188 20 C 9.8677187 21.638 10.396547 23.061453 11.060547 24.189453 C 9.0775469 23.335453 7.4305156 21.854 6.3535156 20 z M 11.585938 20 L 18.414062 20 C 17.655062 23.039 16.278 25 15 25 C 13.722 25 12.344938 23.039 11.585938 20 z M 20.486328 20 L 23.646484 20 C 22.570484 21.854 20.9225 23.335453 18.9375 24.189453 C 19.6015 23.061453 20.130328 21.638 20.486328 20 z" fill="#000000"/></svg>
