<?xml version="1.0" encoding="utf-8"?>
<svg xmlns="http://www.w3.org/2000/svg" viewBox="0 0 30 30" fill="#000000"><path d="M 15 0 C 13.35499 0 12 1.3549904 12 3 L 10 3 L 8 3 C 6.3550302 3 5 4.3550302 5 6 L 5 24 C 5 25.64497 6.3550302 27 8 27 L 22 27 C 23.64497 27 25 25.64497 25 24 L 25 6 C 25 4.3550302 23.64497 3 22 3 L 20 3 L 18 3 C 18 1.3549904 16.64501 0 15 0 z M 15 2 C 15.564129 2 16 2.4358706 16 3 C 16 3.5641294 15.564129 4 15 4 C 14.435871 4 14 3.5641294 14 3 C 14 2.4358706 14.435871 2 15 2 z M 8 5 L 10 5 C 10 6.105 10.895 7 12 7 L 18 7 C 19.105 7 20 6.105 20 5 L 22 5 C 22.56503 5 23 5.4349698 23 6 L 23 24 C 23 24.56503 22.56503 25 22 25 L 8 25 C 7.4349698 25 7 24.56503 7 24 L 7 6 C 7 5.4349698 7.4349698 5 8 5 z M 15 11 C 13.233 11 12.500953 12.227031 12.501953 13.707031 C 12.501953 14.206031 12.720703 14.707031 12.720703 14.707031 C 12.631703 14.762031 12.486437 14.937047 12.523438 15.248047 C 12.591438 15.827047 12.823703 15.974328 12.970703 15.986328 C 13.026703 16.526328 13.812 17.218359 14 17.318359 L 14 18.222656 C 13.626 19.439656 11 19 11 21 L 19 21 C 19 19 16.374953 19.439656 16.001953 18.222656 L 16.001953 17.318359 C 16.189953 17.218359 16.97525 16.526328 17.03125 15.986328 C 17.17825 15.974328 17.410516 15.827047 17.478516 15.248047 C 17.514516 14.937047 17.367297 14.762031 17.279297 14.707031 C 17.279297 14.707031 17.5 14.254031 17.5 13.707031 C 17.5 12.611031 17.103 11.677734 16.25 11.677734 C 16.25 11.677734 15.954 11 15 11 z" fill="#000000"/></svg>
